<?xml version="1.0" encoding="UTF-8" standalone="no"?>
<!DOCTYPE svg PUBLIC "-//W3C//DTD SVG 20010904//EN"
"http://www.w3.org/TR/2001/REC-SVG-20010904/DTD/svg10.dtd">
<!-- Created with Sodipodi ("http://www.sodipodi.com/") -->
<svg
   xmlns="http://www.w3.org/2000/svg"
   xmlns:sodipodi="http://sodipodi.sourceforge.net/DTD/sodipodi-0.dtd"
   xmlns:inkscape="http://www.inkscape.org/namespaces/inkscape"
   xmlns:xlink="http://www.w3.org/1999/xlink"
   id="svg1"
   sodipodi:version="0.34"
   inkscape:version="0.39cvs"
   width="128.00000pt"
   height="128.00000pt"
   sodipodi:docname="/home/angus/lyx_doc.svg"
   sodipodi:docbase="/home/angus">
  <defs
     id="defs3">
    <linearGradient
       id="linearGradient1806">
      <stop
         style="stop-color:#000000;stop-opacity:0.40677965;"
         offset="0.0000000"
         id="stop1807" />
      <stop
         style="stop-color:#000000;stop-opacity:0.073446326;"
         offset="0.64777780"
         id="stop3276" />
      <stop
         style="stop-color:#000000;stop-opacity:0.0000000;"
         offset="1.0000000"
         id="stop1808" />
    </linearGradient>
    <linearGradient
       id="linearGradient1518">
      <stop
         style="stop-color:#ffffff;stop-opacity:0.74226803;"
         offset="0.0000000"
         id="stop1519" />
      <stop
         style="stop-color:#ffffff;stop-opacity:0.0000000;"
         offset="1.0000000"
         id="stop1520" />
    </linearGradient>
    <linearGradient
       id="linearGradient1512">
      <stop
         style="stop-color:#000000;stop-opacity:0.54639173;"
         offset="0.0000000"
         id="stop1513" />
      <stop
         style="stop-color:#000000;stop-opacity:0.0000000;"
         offset="1.0000000"
         id="stop1514" />
    </linearGradient>
    <pattern
       width="130.00000"
       height="96.000000"
       id="pattern903">
      <image
         xlink:href="/home/andy/Desktop/lux.png"
         sodipodi:absref="/home/andy/Desktop/lux.png"
         width="130.00000"
         height="96.000000"
         id="image904" />
    </pattern>
    <linearGradient
       xlink:href="#linearGradient1512"
       id="linearGradient1515"
       x1="0.14117648"
       y1="0.17073171"
       x2="0.74117649"
       y2="0.45121950" />
    <linearGradient
       xlink:href="#linearGradient1518"
       id="linearGradient1517"
       x1="0.56209153"
       y1="-3.2146594e-17"
       x2="0.56862748"
       y2="0.64843750" />
    <linearGradient
       xlink:href="#linearGradient1512"
       id="linearGradient1522"
       x1="0.34108528"
       y1="1.0468750"
       x2="0.33333334"
       y2="0.46093750" />
    <radialGradient
       xlink:href="#linearGradient1518"
       id="radialGradient1524" />
    <radialGradient
       xlink:href="#linearGradient1518"
       id="radialGradient1525" />
    <linearGradient
       xlink:href="#linearGradient1518"
       id="linearGradient1527"
       x1="0.99291223"
       y1="0.38505521"
       x2="-0.12118133"
       y2="0.38729247" />
    <linearGradient
       xlink:href="#linearGradient1518"
       id="linearGradient1529"
       x1="0.99346405"
       y1="1.6406250"
       x2="0.71241832"
       y2="0.62500000" />
    <linearGradient
       xlink:href="#linearGradient1518"
       id="linearGradient1531"
       x1="0.92941177"
       y1="0.35714287"
       x2="0.32629615"
       y2="0.35714287" />
    <linearGradient
       xlink:href="#linearGradient1518"
       id="linearGradient1533"
       x1="0.69879520"
       y1="0.61718750"
       x2="0.44176707"
       y2="0.32812500" />
    <linearGradient
       xlink:href="#linearGradient1518"
       id="linearGradient1535"
       x1="0.0039215689"
       y1="0.94642860"
       x2="0.45490196"
       y2="0.58928573" />
    <linearGradient
       xlink:href="#linearGradient1512"
       id="linearGradient1537"
       x1="0.33070865"
       y1="1.2265625"
       x2="0.43307087"
       y2="0.42968750" />
    <linearGradient
       xlink:href="#linearGradient1512"
       id="linearGradient1539"
       x1="0.16788322"
       y1="1.0312500"
       x2="0.63503647"
       y2="0.45312500" />
    <linearGradient
       xlink:href="#linearGradient1518"
       id="linearGradient1659"
       x1="0.40458015"
       y1="1.3828125"
       x2="0.35877863"
       y2="0.54687500" />
    <radialGradient
       xlink:href="#linearGradient1806"
       id="radialGradient1977"
       cx="0.50000000"
       cy="0.50000000"
       r="0.50000000"
       fx="0.50000000"
       fy="0.50000000" />
    <linearGradient
       xlink:href="#linearGradient1518"
       id="linearGradient1734"
       x1="0.67319918"
       y1="0.99825197"
       x2="0.47887364"
       y2="0.30443147"
       gradientTransform="scale(0.906215,1.103491)" />
  </defs>
  <sodipodi:namedview
     id="base"
     pagecolor="#ffffff"
     bordercolor="#666666"
     borderopacity="1.0"
     inkscape:pageopacity="0.0000000"
     inkscape:pageshadow="2"
     inkscape:zoom="1.2279853"
     inkscape:cx="57.933129"
     inkscape:cy="15.420322"
     inkscape:window-width="420"
     inkscape:window-height="491"
     inkscape:window-x="97"
     inkscape:window-y="125" />
  <path
     sodipodi:type="arc"
     style="fill:url(#radialGradient1977);fill-opacity:0.75000000;fill-rule:evenodd;stroke-width:1.0000000pt;"
     id="path1976"
     sodipodi:cx="41.875938"
     sodipodi:cy="37.865574"
     sodipodi:rx="12.562782"
     sodipodi:ry="12.562782"
     d="M 54.43872 37.86557 A 12.56278 12.56278 0 1 0 29.31316 37.86557 A 12.56278 12.56278 0 1 0  54.43872 37.86557 z"
     transform="matrix(6.757552,0.000000,0.000000,3.357903,-212.4401,-10.33593)" />
  <path
     sodipodi:type="arc"
     style="fill:url(#radialGradient1977);fill-opacity:0.75000000;fill-rule:evenodd;stroke-width:1.0000000pt;"
     id="path1724"
     sodipodi:cx="41.875938"
     sodipodi:cy="37.865574"
     sodipodi:rx="12.562782"
     sodipodi:ry="12.562782"
     d="M 54.43872 37.86557 A 12.56278 12.56278 0 1 0 29.31316 37.86557 A 12.56278 12.56278 0 1 0  54.43872 37.86557 z"
     transform="matrix(6.757552,0.000000,0.000000,3.357903,-196.6048,-24.73160)" />
  <text
     xml:space="preserve"
     style="font-size:12.000000;stroke-width:1.0000000pt;font-family:helvetica;"
     x="0.69148552"
     y="182.14601"
     id="text1067"><tspan
   id="tspan1068">LyX</tspan></text>
  <text
     xml:space="preserve"
     style="font-size:12.000000;stroke-width:1.0000000pt;font-family:helvetica;"
     x="62.452923"
     y="762.71289"
     id="text1070"
     transform="scale(0.246729,0.246729)"><tspan
   id="tspan1071">Created by Andrew Fitzsimon</tspan><tspan
   sodipodi:role="line"
   id="tspan1831"
   x="62.4529228"
   y="774.712891">trace of the LyX Logo</tspan></text>
  <g
     id="g764"
     transform="translate(0,7.086601)">
    <g
       id="g678"
       transform="translate(-3.086827,-7.202625)">
      <defs
         id="defs679">
        <linearGradient
           id="linearGradient1507">
          <stop
             id="stop1508"
             offset="0.0000000"
             style="stop-color:#000000;stop-opacity:0.095505618;" />
          <stop
             id="stop1510"
             offset="1.0000000"
             style="stop-color:#000000;stop-opacity:0.0000000;" />
        </linearGradient>
        <linearGradient
           id="linearGradient852"
           xlink:href="#linearGradient1507" />
        <linearGradient
           id="linearGradient844"
           xlink:href="#linearGradient1507" />
        <linearGradient
           id="linearGradient845"
           x1="1.3833333"
           x2="0.10833333"
           y1="0.49019608"
           y2="0.50490195"
           xlink:href="#linearGradient841" />
        <linearGradient
           id="linearGradient840"
           x1="-0.22348484"
           x2="0.59469700"
           y1="0.38235295"
           y2="0.46568626"
           xlink:href="#linearGradient853" />
        <linearGradient
           id="linearGradient849"
           x1="0.010563380"
           x2="1.2288733"
           y1="0.43229166"
           y2="0.46354166"
           xlink:href="#linearGradient846" />
        <radialGradient
           cx="0.50000000"
           cy="0.50000000"
           fx="0.50000000"
           fy="0.14942528"
           id="radialGradient864"
           r="0.50000000"
           xlink:href="#linearGradient853" />
        <linearGradient
           id="linearGradient841">
          <stop
             id="stop842"
             offset="0.00000000"
             style="stop-color:#ffffff;stop-opacity:1.0000000;" />
          <stop
             id="stop843"
             offset="1.0000000"
             style="stop-color:#ffffff;stop-opacity:0.00000000;" />
        </linearGradient>
        <linearGradient
           id="linearGradient1290">
          <stop
             id="stop1291"
             offset="0.0000000"
             style="stop-color:#b2a269;stop-opacity:1.0000000;" />
          <stop
             id="stop1292"
             offset="1.0000000"
             style="stop-color:#6d5b18;stop-opacity:1.0000000;" />
        </linearGradient>
        <linearGradient
           id="linearGradient860"
           x1="0.47535211"
           x2="0.50000000"
           y1="0.81081080"
           y2="-0.74324322"
           xlink:href="#linearGradient1290" />
        <linearGradient
           id="linearGradient851"
           x1="0.39788732"
           x2="0.80985916"
           y1="0.32222223"
           y2="0.35555556"
           xlink:href="#linearGradient846" />
        <linearGradient
           id="linearGradient858"
           x1="0.64285713"
           x2="0.57142860"
           y1="1.2647059"
           y2="0.049019609"
           xlink:href="#linearGradient846" />
        <linearGradient
           id="linearGradient846">
          <stop
             id="stop847"
             offset="0.00000000"
             style="stop-color:#e7e7e7;stop-opacity:1.0000000;" />
          <stop
             id="stop848"
             offset="1.0000000"
             style="stop-color:#a5a5a5;stop-opacity:1.0000000;" />
        </linearGradient>
        <linearGradient
           id="linearGradient850"
           xlink:href="#linearGradient846" />
        <linearGradient
           id="linearGradient859"
           x1="1.4647887"
           x2="0.26408452"
           y1="-1.1486486"
           y2="1.2905406"
           xlink:href="#linearGradient853" />
        <linearGradient
           id="linearGradient853">
          <stop
             id="stop854"
             offset="0.00000000"
             style="stop-color:#000000;stop-opacity:0.29752067;" />
          <stop
             id="stop855"
             offset="1.0000000"
             style="stop-color:#000000;stop-opacity:0.00000000;" />
        </linearGradient>
        <radialGradient
           cx="0.50000000"
           cy="0.50000000"
           fx="0.50704223"
           fy="0.29885057"
           id="radialGradient861"
           r="0.50000000"
           xlink:href="#linearGradient853" />
        <linearGradient
           id="linearGradient1501">
          <stop
             id="stop1502"
             offset="0.0000000"
             style="stop-color:#ffffff;stop-opacity:1.0000000;" />
          <stop
             id="stop1504"
             offset="1.0000000"
             style="stop-color:#ffffff;stop-opacity:0.0000000;" />
        </linearGradient>
        <linearGradient
           id="linearGradient1492">
          <stop
             id="stop1493"
             offset="0.0000000"
             style="stop-color:#cbcbcb;stop-opacity:1.0000000;" />
          <stop
             id="stop1496"
             offset="0.34923077"
             style="stop-color:#f0f0f0;stop-opacity:1.0000000;" />
          <stop
             id="stop1494"
             offset="1.0000000"
             style="stop-color:#e2e2e2;stop-opacity:1.0000000;" />
        </linearGradient>
        <linearGradient
           id="linearGradient1495"
           x1="0.92307693"
           x2="0.14529915"
           y1="0.16406250"
           y2="1.1718750"
           xlink:href="#linearGradient1492" />
        <linearGradient
           id="linearGradient1497"
           x1="0.63247865"
           x2="-0.37606838"
           y1="0.32812500"
           y2="1.3281250"
           xlink:href="#linearGradient1492" />
        <linearGradient
           id="linearGradient1499"
           x1="0.85826772"
           x2="0.062992126"
           y1="0.14062500"
           y2="0.54687500"
           xlink:href="#linearGradient1501" />
        <linearGradient
           id="linearGradient1506"
           x1="0.052173913"
           x2="0.78260869"
           y1="0.97656250"
           y2="0.0078125000"
           xlink:href="#linearGradient1507" />
        <linearGradient
           id="linearGradient1556"
           x1="0.31111112"
           x2="0.62222224"
           y1="-0.56250000"
           y2="0.79687500"
           xlink:href="#linearGradient1507" />
        <radialGradient
           cx="0.50000000"
           cy="0.89285713"
           fx="0.54117650"
           fy="3.5200000"
           id="radialGradient856"
           r="0.54606670"
           xlink:href="#linearGradient841" />
        <linearGradient
           id="linearGradient1944"
           xlink:href="#linearGradient841" />
      </defs>
      <sodipodi:namedview
         inkscape:cx="28.450752"
         inkscape:cy="97.214075"
         inkscape:pageopacity="0.0"
         inkscape:pageshadow="2"
         inkscape:window-height="491"
         inkscape:window-width="390"
         inkscape:window-x="323"
         inkscape:window-y="53"
         inkscape:zoom="4.7658944"
         bordercolor="#666666"
         borderopacity="1.0"
         id="namedview721"
         pagecolor="#ffffff" />
      <path
         sodipodi:nodetypes="cccccccccccccccc"
         d="M 17.159384,6.3292894 L 17.159384,43.068526 L 17.159384,79.807768 L 17.159384,116.54700 L 17.159384,153.28624 L 50.687024,153.28624 L 84.214664,153.28624 L 117.74230,153.28624 L 151.26994,153.28624 L 151.26994,116.54700 L 151.26994,79.807768 L 151.26994,43.068526 L 117.74230,6.3292894 L 84.214664,6.3292894 L 50.687024,6.3292894 L 17.159384,6.3292894 z "
         id="path930"
         style="fill:#ffffff;fill-rule:evenodd;stroke-width:0.42649043;stroke-opacity:0.36477986;" />
      <g
         id="g1552"
         style="fill:#000000;fill-opacity:0.069182344;"
         transform="matrix(0.304171,0.000000,0.000000,0.297572,-36.70399,-112.4880)">
        <path
           sodipodi:nodetypes="cccccccccccccccc"
           d="M 173.35959,408.81260 L 173.35959,531.07360 L 173.35959,653.33460 L 173.35959,775.59560 L 173.35959,897.85660 L 282.12187,897.85660 L 390.88417,897.85660 L 499.64646,897.85660 L 608.40874,897.85660 L 608.40874,775.59560 L 608.40874,653.33460 L 608.40874,531.07360 L 499.64646,408.81260 L 390.88417,408.81260 L 282.12187,408.81260 L 173.35959,408.81260 z "
           id="path1505"
           style="fill-opacity:0.069182344;fill-rule:evenodd;stroke-width:0.95407495pt;fill:#000000;" />
        <path
           d="M 170.12500,407.18750 C 170.12500,571.82292 170.12500,736.45833 170.12500,901.09375 C 317.30208,901.09375 464.47917,901.09375 611.65625,901.09375 C 611.65625,777.33333 611.65625,653.57292 611.65625,529.81250 C 574.80918,488.38978 537.97604,446.95335 501.09375,405.56250 C 390.77083,405.56250 280.44792,405.56250 170.12500,405.56250 C 170.12500,405.89583 170.12500,406.97917 170.12500,407.18750 z "
           id="path725"
           style="fill-opacity:0.069182344;fill-rule:evenodd;stroke-width:0.95407495pt;fill:#000000;" />
        <path
           d="M 166.87500,403.93750 C 166.87500,570.73958 166.87500,737.54167 166.87500,904.34375 C 316.21875,904.34375 465.56250,904.34375 614.90625,904.34375 C 614.90625,779.08333 614.90625,653.82292 614.90625,528.56250 C 577.45517,486.47298 540.01754,444.37017 502.53125,402.31250 C 390.64583,402.31250 278.76042,402.31250 166.87500,402.31250 C 166.87500,402.64583 166.87500,403.72917 166.87500,403.93750 z "
           id="path1543"
           style="fill-opacity:0.069182344;fill-rule:evenodd;stroke-width:0.95407495pt;fill:#000000;" />
      </g>
      <path
         sodipodi:nodetypes="cccccccccccccccc"
         d="M 297.99034,136.74154 L 297.99034,260.57234 L 297.99034,384.40315 L 297.99034,508.23395 L 297.99034,632.06475 L 410.99634,632.06475 L 524.00235,632.06475 L 637.00835,632.06475 L 750.01435,632.06475 L 750.01435,508.23395 L 750.01435,384.40315 L 750.01435,260.57234 L 637.00835,136.74154 L 524.00235,136.74154 L 410.99634,136.74154 L 297.99034,136.74154 z "
         id="rect900"
         style="fill:url(#linearGradient1495);fill-opacity:1;fill-rule:evenodd;stroke:#000000;stroke-width:1.4375000;stroke-opacity:0.36477986;"
         transform="matrix(0.296689,0.000000,0.000000,0.296689,-71.19601,-34.05825)" />
      <path
         sodipodi:nodetypes="cccc"
         d="M 750.01435,260.57234 C 715.94460,250.48602 671.79788,251.91624 638.44792,257.66516 C 644.20618,220.71628 644.92597,174.41021 637.00835,136.74154 L 750.01435,260.57234 z "
         id="path906"
         style="fill:url(#linearGradient1497);fill-opacity:1;fill-rule:evenodd;stroke-width:0.95407495pt;"
         transform="matrix(0.296689,0.000000,0.000000,0.296689,-71.19601,-34.05825)" />
      <path
         sodipodi:nodetypes="cccczc"
         d="M 301.30655,174.90867 L 299.27069,628.90434 L 743.08709,628.90434 L 743.34157,516.67783 C 733.41677,520.49506 633.15091,378.49417 506.92790,384.60173 C 380.59029,390.71484 413.27857,193.23136 301.30655,174.90867 z "
         id="path1500"
         style="fill:url(#linearGradient1499);fill-opacity:1;fill-rule:evenodd;stroke-width:1.0000000pt;"
         transform="matrix(0.296689,0.000000,0.000000,0.296689,-71.19601,-34.05825)" />
      <metadata
         id="metadata730">
        <rdf:RDF
           xmlns:cc="http://web.resource.org/cc/"
           xmlns:dc="http://purl.org/dc/elements/1.1/"
           xmlns:rdf="http://www.w3.org/1999/02/22-rdf-syntax-ns#">
          <cc:Work
             rdf:about="">
            <dc:title>Etiquette Icons</dc:title>
            <dc:description />
            <dc:subject>
              <rdf:Bag>
                <rdf:li>hash</rdf:li>
                <rdf:li>icons</rdf:li>
                <rdf:li>computer</rdf:li>
                <rdf:li />
              </rdf:Bag>
            </dc:subject>
            <dc:publisher>
              <cc:Agent
                 rdf:about="http://www.openclipart.org">
                <dc:title>Andy Fitzsimon</dc:title>
              </cc:Agent>
            </dc:publisher>
            <dc:creator>
              <cc:Agent
                 rdf:about="">
                <dc:title>Andy Fitzsimon</dc:title>
              </cc:Agent>
            </dc:creator>
            <dc:rights>
              <cc:Agent
                 rdf:about="">
                <dc:title>Andy Fitzsimon</dc:title>
              </cc:Agent>
            </dc:rights>
            <dc:date />
            <dc:format>image/svg+xml</dc:format>
            <dc:type
               rdf:resource="http://purl.org/dc/dcmitype/StillImage" />
            <cc:license
               rdf:resource="http://web.resource.org/cc/PublicDomain">
              <dc:date />
            </cc:license>
            <dc:language>en</dc:language>
          </cc:Work>
          <cc:License
             rdf:about="http://web.resource.org/cc/PublicDomain">
            <cc:permits
               rdf:resource="http://web.resource.org/cc/Reproduction" />
            <cc:permits
               rdf:resource="http://web.resource.org/cc/Distribution" />
            <cc:permits
               rdf:resource="http://web.resource.org/cc/DerivativeWorks" />
          </cc:License>
        </rdf:RDF>
      </metadata>
    </g>
    <g
       id="g731"
       transform="matrix(0.8,0,0,0.8,16.7711,15.21633)">
      <g
         id="g1540"
         transform="matrix(1.429413,-3.932010e-2,3.932010e-2,1.429413,6.816050,14.52049)"
         style="">
        <path
           style="fill:#212121;fill-rule:evenodd;stroke-width:0.57499999;"
           d="M 24.859391,31.907937 C 23.419824,24.350211 24.964801,11.778293 30.054438,8.9789918 C 35.144076,6.1796912 40.379124,5.3034583 41.760605,9.7424375 C 43.243834,14.508354 39.448349,16.768623 34.704351,20.597833 C 29.745701,24.600304 28.340109,28.103497 24.859391,31.907937 z "
           id="path917"
           sodipodi:nodetypes="cczzc" />
      </g>
      <path
         style="fill:#618bb4;fill-rule:evenodd;stroke-width:0.57499999;fill-opacity:1.0000000;"
         d="M 25.193706,48.176692 C 25.193706,48.176692 24.939224,26.545733 44.025365,23.491950 C 63.111506,20.438168 70.109757,49.449102 68.710107,54.029776 C 67.310457,58.610450 49.351398,70.044503 37.645232,66.227275 C 25.939066,62.410047 26.975079,57.338040 25.193706,48.176692 z "
         id="path918"
         sodipodi:nodetypes="cczcc"
         transform="matrix(1.429954,0.000000,0.000000,1.429954,6.412650,11.07234)" />
      <path
         style="fill:url(#linearGradient1529);fill-rule:evenodd;stroke-width:0.57499999;"
         d="M 28.074289,48.939744 C 28.074289,48.939744 27.844841,29.436670 45.053436,26.683294 C 62.262031,23.929920 69.374917,51.234223 67.309886,54.217047 C 65.244854,57.199869 51.477978,62.247724 40.923373,58.806005 C 30.368769,55.364286 29.680425,57.199869 28.074289,48.939744 z "
         id="path1528"
         transform="matrix(1.429954,0.000000,0.000000,1.429954,6.412650,11.07234)" />
      <path
         style="fill:url(#linearGradient1517);fill-rule:evenodd;stroke-width:0.57499999;"
         d="M 25.891950,48.915464 C 25.891950,48.915464 25.637468,27.284505 44.723609,24.230722 C 63.809750,21.176940 71.698688,51.460283 69.408351,54.768548 C 67.118014,58.076812 51.849101,63.675413 40.142935,59.858185 C 28.436769,56.040957 27.673323,58.076812 25.891950,48.915464 z "
         id="path1516"
         transform="matrix(1.429954,0.000000,0.000000,1.429954,6.412650,11.07234)" />
      <path
         style="fill:#a2360f;fill-rule:evenodd;stroke-width:0.57499999;fill-opacity:1.0000000;"
         d="M 40.717100,73.115916 C 40.717100,68.916965 50.070907,54.562023 54.040131,54.343356 C 58.099053,54.119748 55.986013,56.829076 59.039796,56.574594 C 62.093578,56.320112 67.183216,56.574594 68.201143,59.882859 C 69.219071,63.191123 69.473553,72.606953 66.165288,73.370398 C 62.857024,74.133844 60.057723,74.897290 58.276350,77.442108 C 56.494977,79.986927 51.150858,84.567601 46.061220,82.277264 C 41.078519,80.035049 40.717100,77.314867 40.717100,73.115916 z "
         id="path916"
         sodipodi:nodetypes="czcccczz"
         transform="matrix(1.429954,0.000000,0.000000,1.429954,6.412650,11.07234)" />
      <path
         style="fill:#e7d417;fill-opacity:0.44654086;fill-rule:evenodd;stroke-width:0.57499999;"
         d="M 47.842593,75.406253 C 48.097075,73.879362 50.387412,62.936641 53.186712,61.155268 C 55.986013,59.373895 54.204640,62.936641 55.222568,64.718014 C 56.240495,66.499388 61.330133,59.373895 61.330133,62.427678 C 61.330133,65.481460 56.749459,67.517315 59.803241,67.008351 C 62.857024,66.499388 71.254926,63.954569 66.928734,67.262833 C 62.602542,70.571098 60.312205,75.406253 57.258423,73.879362 C 54.204640,72.352471 53.186712,77.187626 50.641894,77.187626 C 48.097075,77.187626 47.588111,77.187626 47.842593,75.406253 z "
         id="path922"
         transform="matrix(1.429954,0.000000,0.000000,1.429954,6.412650,11.07234)" />
      <path
         style="fill:url(#linearGradient1537);fill-rule:evenodd;stroke-width:0.57499999;"
         d="M 40.983128,72.559266 C 40.983128,68.360315 50.336933,54.005373 54.306163,53.786706 C 58.365083,53.563098 56.252043,56.272426 59.305823,56.017944 C 62.359603,55.763462 67.449243,56.017944 68.467173,59.326209 C 69.485103,62.634473 69.739583,72.050303 66.431313,72.813748 C 63.123053,73.577194 60.323753,74.340640 58.542383,76.885458 C 56.761003,79.430277 51.416883,84.010951 46.327253,81.720614 C 41.344547,79.478399 40.983128,76.758217 40.983128,72.559266 z "
         id="path1536"
         sodipodi:nodetypes="czcccczz"
         transform="matrix(1.429954,0.000000,0.000000,1.429954,6.412650,11.07234)" />
      <path
         style="fill:url(#linearGradient1515);fill-rule:evenodd;stroke-width:0.57499999;"
         d="M 51.150857,44.868428 L 78.634900,52.757366 L 100.26586,36.979490 L 51.150857,44.868428 z "
         id="path910"
         transform="matrix(1.429954,0.000000,0.000000,1.429954,6.412650,11.07234)" />
      <path
         style="fill:#bd3200;fill-rule:evenodd;stroke-width:0.57499999;"
         d="M 50.387412,44.359464 L 100.26586,30.108479 L 76.344563,49.194620 L 50.387412,44.359464 z "
         id="path909"
         transform="matrix(1.429954,0.000000,0.000000,1.429954,6.412650,11.07234)" />
      <path
         sodipodi:type="arc"
         style="fill:#f4f4f4;fill-rule:evenodd;stroke-width:0.47612661;"
         id="path914"
         sodipodi:cx="61.584614"
         sodipodi:cy="30.108479"
         sodipodi:rx="8.9068661"
         sodipodi:ry="8.9068661"
         d="M 70.49148 30.10848 A 8.906866 8.906866 0 1 0 52.67775 30.10848 A 8.906866 8.906866 0 1 0  70.49148 30.10848 z"
         transform="matrix(1.726901,0.000000,0.000000,1.726901,-13.97865,2.029577)" />
      <path
         style="fill:#a2360f;fill-rule:evenodd;stroke-width:0.57499999;fill-opacity:1.0000000;"
         d="M 27.993007,55.556667 C 27.993007,55.556667 27.484043,58.355967 29.774380,60.900786 C 32.064717,63.445605 41.480546,72.097989 38.172282,77.187626 C 34.864017,82.277264 26.211633,82.786228 23.157851,79.223481 C 20.104068,75.660735 8.9068657,71.080061 9.1613476,69.298688 C 9.4158295,67.517315 5.0896376,58.610449 11.960648,58.101486 C 18.831659,57.592522 23.412333,53.011848 25.448188,52.757366 C 27.484043,52.502884 28.247488,53.775294 27.993007,55.556667 z "
         id="path915"
         transform="matrix(1.429954,0.000000,0.000000,1.429954,6.412650,11.07234)" />
      <path
         style="fill:#e7d417;fill-opacity:0.42767295;fill-rule:evenodd;stroke-width:0.57499999;"
         d="M 26.211633,61.409750 C 26.211633,61.409750 28.756452,67.517315 31.301271,70.825580 C 33.846090,74.133844 30.537825,78.714518 27.229561,75.660735 C 23.921297,72.606953 13.487540,70.316616 13.742021,67.262833 C 13.996503,64.209051 18.322695,69.807652 19.086141,67.262833 C 19.849586,64.718014 13.996503,58.864931 17.050286,59.628377 C 20.104068,60.391823 22.394405,68.026279 23.157851,63.700087 C 23.921297,59.373895 22.903369,55.556667 26.211633,61.409750 z "
         id="path921"
         transform="matrix(1.429954,0.000000,0.000000,1.429954,6.412650,11.07234)" />
      <path
         style="fill:url(#linearGradient1539);fill-rule:evenodd;stroke-width:0.57499999;"
         d="M 28.286502,55.412556 C 28.286502,55.412556 27.777538,58.211856 30.067875,60.756675 C 32.358212,63.301494 41.774041,71.953878 38.465777,77.043515 C 35.157512,82.133153 26.505128,82.642117 23.451346,79.079370 C 20.397563,75.516624 9.2003609,70.935950 9.4548429,69.154577 C 9.7093249,67.373204 5.3831329,58.466338 12.254143,57.957375 C 19.125154,57.448411 23.705828,52.867737 25.741683,52.613255 C 27.777538,52.358773 28.540983,53.631183 28.286502,55.412556 z "
         id="path1538"
         transform="matrix(1.429954,0.000000,0.000000,1.429954,6.412650,11.07234)" />
      <path
         sodipodi:type="arc"
         style="fill:#e4d66e;fill-rule:evenodd;stroke-width:0.59175676;"
         id="path1510"
         sodipodi:cx="61.584614"
         sodipodi:cy="30.108479"
         sodipodi:rx="8.9068661"
         sodipodi:ry="8.9068661"
         d="M 70.49148 30.10848 A 8.906866 8.906866 0 1 0 52.67775 30.10848 A 8.906866 8.906866 0 1 0  70.49148 30.10848 z"
         transform="matrix(1.389462,0.000000,0.000000,1.389462,7.172151,12.65069)" />
      <path
         sodipodi:type="arc"
         style="fill-rule:evenodd;stroke-width:0.57499999;"
         id="path912"
         sodipodi:cx="61.584614"
         sodipodi:cy="31.126406"
         sodipodi:rx="5.8530831"
         sodipodi:ry="5.8530831"
         d="M 67.4377 31.12641 A 5.853083 5.853083 0 1 0 55.73153 31.12641 A 5.853083 5.853083 0 1 0  67.4377 31.12641 z"
         transform="matrix(1.429954,0.000000,0.000000,1.429954,6.286480,10.63843)" />
      <path
         style="fill:#45800c;fill-rule:evenodd;stroke-width:0.57499999;"
         d="M 25.957152,48.431174 C 25.957152,48.431174 31.810235,47.922210 29.774380,50.975993 C 27.738525,54.029776 20.867514,55.047703 25.193706,56.320112 C 29.519898,57.592522 52.423267,58.101486 54.968086,59.373895 C 57.512904,60.646304 50.132930,68.535243 45.297774,67.008351 C 40.462619,65.481460 33.591608,59.119413 26.466115,60.137341 C 19.340623,61.155268 12.469612,65.226978 12.215130,60.900786 C 11.960648,56.574594 17.559250,49.703584 25.957152,48.431174 z "
         id="path919"
         transform="matrix(1.429954,0.000000,0.000000,1.429954,6.412650,11.07234)" />
      <path
         style="fill:url(#linearGradient1535);fill-rule:evenodd;stroke-width:0.57499999;"
         d="M 28.123743,46.722923 C 28.123743,46.722923 33.733476,46.235120 31.782264,49.161938 C 29.831053,52.088756 23.245714,53.064361 27.392038,54.283868 C 31.538363,55.503375 53.489492,55.991179 55.928506,57.210685 C 58.367520,58.430192 51.294379,65.991137 46.660251,64.527728 C 42.026124,63.064320 35.440785,56.966784 28.611545,57.942390 C 21.782305,58.917995 15.196966,62.820418 14.953065,58.674094 C 14.709163,54.527769 20.074995,47.942431 28.123743,46.722923 z "
         id="path1534"
         transform="matrix(1.429954,0.000000,0.000000,1.429954,6.412650,11.07234)" />
      <path
         style="fill:#52980f;fill-rule:evenodd;stroke-width:0.57499999;"
         d="M 68.710107,53.011848 C 68.710107,53.011848 77.616973,55.811149 72.272853,56.829076 C 66.928734,57.847004 53.695676,56.574594 49.878448,59.119413 C 46.061220,61.664232 41.735028,69.807652 44.788811,71.334543 C 47.842593,72.861435 55.986013,64.209051 63.111506,62.936641 C 70.236998,61.664232 85.505911,62.427678 86.269357,59.882859 C 87.032802,57.338040 72.447502,49.641836 69.648201,49.641836 C 66.848901,49.641836 68.710107,53.011848 68.710107,53.011848 z "
         id="path920"
         sodipodi:nodetypes="cccccccc"
         transform="matrix(1.429954,0.000000,0.000000,1.429954,6.412650,11.07234)" />
      <path
         sodipodi:type="arc"
         style="fill:url(#linearGradient1522);fill-rule:evenodd;stroke-width:0.62365168;"
         id="path1523"
         sodipodi:cx="41.989510"
         sodipodi:cy="35.452599"
         sodipodi:rx="9.1613474"
         sodipodi:ry="9.1613474"
         d="M 51.15086 35.4526 A 9.161347 9.161347 0 1 0 32.82816 35.4526 A 9.161347 9.161347 0 1 0  51.15086 35.4526 z"
         transform="matrix(1.318402,0.000000,0.000000,1.318402,36.93339,7.749206)" />
      <path
         sodipodi:type="arc"
         style="fill:#f4f4f4;fill-rule:evenodd;stroke-width:0.49186331;"
         id="path923"
         sodipodi:cx="41.989510"
         sodipodi:cy="35.452599"
         sodipodi:rx="9.1613474"
         sodipodi:ry="9.1613474"
         d="M 51.15086 35.4526 A 9.161347 9.161347 0 1 0 32.82816 35.4526 A 9.161347 9.161347 0 1 0  51.15086 35.4526 z"
         transform="matrix(1.671651,0.000000,0.000000,1.671651,-3.918064,5.232760)" />
      <path
         sodipodi:type="arc"
         style="fill:#e4d66e;fill-rule:evenodd;stroke-width:0.62365168;"
         id="path913"
         sodipodi:cx="41.989510"
         sodipodi:cy="35.452599"
         sodipodi:rx="9.1613474"
         sodipodi:ry="9.1613474"
         d="M 51.15086 35.4526 A 9.161347 9.161347 0 1 0 32.82816 35.4526 A 9.161347 9.161347 0 1 0  51.15086 35.4526 z"
         transform="matrix(1.318402,0.000000,0.000000,1.318402,11.09669,17.21056)" />
      <path
         sodipodi:type="arc"
         style="fill:url(#linearGradient1522);fill-rule:evenodd;stroke-width:0.62365168;"
         id="path1521"
         sodipodi:cx="41.989510"
         sodipodi:cy="35.452599"
         sodipodi:rx="9.1613474"
         sodipodi:ry="9.1613474"
         d="M 51.15086 35.4526 A 9.161347 9.161347 0 1 0 32.82816 35.4526 A 9.161347 9.161347 0 1 0  51.15086 35.4526 z"
         transform="matrix(1.318402,0.000000,0.000000,1.318402,11.09667,16.84664)" />
      <path
         sodipodi:type="arc"
         style="fill-rule:evenodd;stroke-width:0.57499999;"
         id="path911"
         sodipodi:cx="42.243992"
         sodipodi:cy="36.216045"
         sodipodi:rx="6.1075649"
         sodipodi:ry="6.1075649"
         d="M 48.35155 36.21605 A 6.107565 6.107565 0 1 0 36.13643 36.21605 A 6.107565 6.107565 0 1 0  48.35155 36.21605 z"
         transform="matrix(1.429954,0.000000,0.000000,1.429954,6.971427,11.22306)" />
      <path
         sodipodi:type="arc"
         style="fill:url(#radialGradient1524);fill-rule:evenodd;stroke-width:1.1081090;"
         id="path1509"
         sodipodi:cx="42.243992"
         sodipodi:cy="36.216045"
         sodipodi:rx="6.1075649"
         sodipodi:ry="6.1075649"
         d="M 48.35155 36.21605 A 6.107565 6.107565 0 1 0 36.13643 36.21605 A 6.107565 6.107565 0 1 0  48.35155 36.21605 z"
         transform="matrix(1.099494,0.000000,0.000000,1.099494,18.05623,20.13574)" />
      <path
         sodipodi:type="arc"
         style="fill:url(#radialGradient1525);fill-rule:evenodd;stroke-width:1.1081090;"
         id="path1511"
         sodipodi:cx="42.243992"
         sodipodi:cy="36.216045"
         sodipodi:rx="6.1075649"
         sodipodi:ry="6.1075649"
         d="M 48.35155 36.21605 A 6.107565 6.107565 0 1 0 36.13643 36.21605 A 6.107565 6.107565 0 1 0  48.35155 36.21605 z"
         transform="matrix(1.099494,0.000000,0.000000,1.099494,44.87933,12.47874)" />
      <path
         style="fill:url(#linearGradient1531);fill-rule:evenodd;stroke-width:0.57499999;"
         d="M 55.758098,43.619804 L 96.835997,31.883262 L 77.135370,47.601846 L 55.758098,43.619804 z "
         id="path1530"
         transform="matrix(1.429954,0.000000,0.000000,1.429954,6.412650,11.07234)" />
      <path
         style="fill:url(#linearGradient1533);fill-rule:evenodd;stroke-width:0.57499999;"
         d="M 67.743635,52.574355 C 67.743635,52.574355 76.650495,55.373656 71.306375,56.391583 C 65.962265,57.409511 52.729203,56.137101 48.911975,58.681920 C 45.094747,61.226739 40.768555,69.370159 43.822338,70.897050 C 46.876120,72.423942 55.019540,63.771558 62.145035,62.499148 C 69.270525,61.226739 84.539435,61.990185 85.302885,59.445366 C 86.066325,56.900547 71.481025,49.204343 68.681725,49.204343 C 65.882425,49.204343 67.743635,52.574355 67.743635,52.574355 z "
         id="path1532"
         sodipodi:nodetypes="cccccccc"
         transform="matrix(1.429954,0.000000,0.000000,1.429954,6.412650,11.07234)" />
      <g
         id="g1657"
         transform="matrix(1.219881,-3.355633e-2,3.355633e-2,1.219881,15.12310,17.23540)"
         style="fill:url(#linearGradient1527);">
        <path
           style="fill-rule:evenodd;stroke-width:0.57499999;"
           d="M 24.859391,31.907937 C 23.419824,24.350211 24.964801,11.778293 30.054438,8.9789918 C 35.144076,6.1796912 40.379124,5.3034583 41.760605,9.7424375 C 43.243834,14.508354 39.448349,16.768623 34.704351,20.597833 C 29.745701,24.600304 28.340109,28.103497 24.859391,31.907937 z "
           id="path1658"
           sodipodi:nodetypes="cczzc" />
      </g>
      <path
         style="fill:url(#linearGradient1734);fill-opacity:0.44654086;fill-rule:evenodd;stroke-width:0.57499999;"
         d="M 74.490374,118.99279 C 74.854272,116.80940 78.129348,101.16181 82.132218,98.614531 C 86.135090,96.067249 83.587809,101.16181 85.043399,103.70910 C 86.498988,106.25638 93.776936,96.067249 93.776936,100.43402 C 93.776936,104.80079 87.226783,107.71197 91.593550,106.98417 C 95.960320,106.25638 107.96894,102.61740 101.78268,107.34807 C 95.596422,112.07874 92.321346,118.99279 87.954578,116.80940 C 83.587809,114.62602 82.132218,121.54007 78.493246,121.54007 C 74.854272,121.54007 74.126476,121.54007 74.490374,118.99279 z "
         id="path1726" />
      <path
         style="fill:url(#linearGradient1659);fill-opacity:0.42767295;fill-rule:evenodd;stroke-width:0.57499999;"
         d="M 43.559096,98.978428 C 43.559096,98.978428 47.198070,107.71197 50.837044,112.44264 C 54.476018,117.17330 49.745352,123.72345 45.014686,119.35669 C 40.284021,114.98992 25.364228,111.71484 25.728125,107.34807 C 26.092022,102.98130 32.278278,110.98705 33.369970,107.34807 C 34.461662,103.70910 26.092022,95.339454 30.458791,96.431147 C 34.825559,97.522839 38.100636,108.43976 39.192328,102.25351 C 40.284021,96.067249 38.828431,90.608789 43.559096,98.978428 z "
         id="path1729" />
    </g>
  </g>
</svg>
